<?xml version="1.0" encoding="UTF-8"?>
<svg id="_图层_1" data-name="图层 1" xmlns="http://www.w3.org/2000/svg" viewBox="0 0 16.41 16.41">
  <g id="icon-6" transform="rotate(90) translate(0 -16.41)">
    <g>
      <path d="m0,8.2c0,4.54,3.67,8.21,8.2,8.21s8.21-3.67,8.21-8.21S12.73,0,8.2,0,0,3.67,0,8.2Z" style="fill: #000; stroke-width: 0px;"/>
      <g>
        <polygon points="3.53 7.31 3.53 4.43 7.11 6.47 7.11 5.48 14.31 10.17 8.95 8.11 8.95 9.49 3.53 7.31" style="fill: #fff; stroke-width: 0px;"/>
        <g>
          <path d="m10.79,12.01c.75-.5,1.34-1.24,1.65-2.11l-1.65-.64v2.75Z" style="fill: #fff; stroke-width: 0px;"/>
          <path d="m6.21,8.84l-2.11-.85c-.02.14-.02.29-.02.43,0,1.58.85,2.96,2.13,3.71v-3.29Z" style="fill: #fff; stroke-width: 0px;"/>
          <path d="m6.99,9.15v3.34c.36.12.73.2,1.12.23v-3.12l-1.12-.45Z" style="fill: #fff; stroke-width: 0px;"/>
          <path d="m6.69,5.75v-1.05l.65.42,5.36,3.49c0-.07.01-.13.01-.2,0-2.38-1.93-4.31-4.31-4.31-1.06,0-2.03.39-2.79,1.03l1.08.62Z" style="fill: #fff; stroke-width: 0px;"/>
          <path d="m9.37,10.11l-.48-.19v2.79c.39-.05.77-.14,1.12-.29v-3.45l-.64-.25v1.39Z" style="fill: #fff; stroke-width: 0px;"/>
        </g>
        <path d="m6.19,8.83v4.03c0,.12.09.21.21.21s.21-.09.21-.21v-3.86l-.42-.17Z" style="fill: #fff; stroke-width: 0px;"/>
        <path d="m8.08,9.59v3.59c0,.12.09.21.21.21s.22-.1.22-.21v-3.42l-.43-.17Z" style="fill: #fff; stroke-width: 0px;"/>
        <path d="m9.98,8.96v3.9c0,.12.09.21.21.21s.21-.09.21-.21v-3.74l-.42-.16Z" style="fill: #fff; stroke-width: 0px;"/>
      </g>
    </g>
  </g>
</svg>