<?xml version="1.0" encoding="UTF-8"?>
<svg id="_图层_1" data-name="图层 1" xmlns="http://www.w3.org/2000/svg" viewBox="0 0 19.84 19.85">
  <g id="icon-6">
    <path d="m0,9.92c0,5.49,4.44,9.93,9.91,9.93s9.93-4.44,9.93-9.93S15.39,0,9.91,0,0,4.45,0,9.92Z" style="fill: #000; stroke-width: 0px;"/>
    <g>
      <path d="m14.99,14.08h0c0,.67-.54,1.21-1.21,1.21h-4.65c-.67,0-1.21-.54-1.21-1.21h0c0-.67.54-1.21,1.21-1.21h4.65c.67,0,1.21.54,1.21,1.21Z" style="fill: #fff; stroke-width: 0px;"/>
      <path d="m14.99,10.09h0c0,.67-.54,1.21-1.21,1.21h-6.64c-.67,0-1.21-.54-1.21-1.21h0c0-.67.54-1.21,1.21-1.21h6.64c.67.01,1.21.55,1.21,1.21Z" style="fill: #fff; stroke-width: 0px;"/>
      <path d="m14.99,6.09h0c0,.67-.54,1.21-1.21,1.21H4.85c-.67,0-1.21-.54-1.21-1.21h0c0-.67.54-1.21,1.21-1.21h8.93c.67.01,1.21.55,1.21,1.21Z" style="fill: #fff; stroke-width: 0px;"/>
      <path d="m14.32,14.08h0c0,.35-.28.63-.63.63h-2.14c-.35,0-.63-.28-.63-.63h0c0-.35.28-.63.63-.63h2.14c.35,0,.63.28.63.63Z" style="fill: #000; stroke-width: 0px;"/>
      <path d="m14.32,10.09h0c0,.35-.28.63-.63.63h-2.14c-.35,0-.63-.28-.63-.63h0c0-.35.28-.63.63-.63h2.14c.35.01.63.29.63.63Z" style="fill: #000; stroke-width: 0px;"/>
      <path d="m14.32,6.09h0c0,.35-.28.63-.63.63h-2.14c-.35,0-.63-.28-.63-.63h0c0-.35.28-.63.63-.63h2.14c.35.01.63.29.63.63Z" style="fill: #000; stroke-width: 0px;"/>
    </g>
  </g>
</svg>