<?xml version="1.0" encoding="UTF-8"?>
<svg id="_图层_1" data-name="图层 1" xmlns="http://www.w3.org/2000/svg" viewBox="0 0 17.55 17.55">
  <g id="icon-4">
    <path d="m8.78,0C3.94,0,0,3.93,0,8.77s3.93,8.78,8.78,8.78,8.77-3.93,8.77-8.78S13.63,0,8.78,0Z" style="fill: #000; stroke-width: 0px;"/>
    <path d="m11.14,9.78c-.03-.01-.06-.02-.1-.03l-.07-.02c-.65-.2-1.3-.41-1.96-.62.03-.04.05-.06.07-.09.31-.38.61-.76.92-1.14.15-.18.31-.36.43-.57.14-.26.17-.52.08-.8-.08-.28-.26-.48-.5-.64-.16-.1-.34-.17-.52-.22-.09-.03-.19-.05-.29-.06-.15-.03-.31-.05-.46-.07-.11-.02-.22-.03-.33-.05-.16-.02-.33-.04-.49-.07-.16-.02-.32-.05-.49-.08-.15-.02-.31-.04-.46-.07-.12-.02-.25-.02-.37.02-.12.03-.22.1-.31.18-.15.14-.31.28-.46.42-.04.03-.07.07-.11.1l-.01.01c-.01.01-.03.02-.04.03-.33.3-.66.61-.99.91-.24.22-.27.57-.06.82.14.17.33.23.54.2.13-.02.24-.09.34-.18.41-.38.83-.77,1.25-1.15.01-.01.04-.02.06-.02.08.01.16.02.24.03.23.04.45.07.68.11.03,0,.05.01.08.01-.08.14-.16.28-.24.41-.15.26-.3.51-.45.77-.14.25-.27.5-.42.74-.11.18-.14.37-.09.58.06.23.2.4.38.54.23.18.5.26.77.34.18.05.36.11.54.16.13.04.26.08.39.12.2.06.39.12.59.18.15.05.29.09.44.14.05.02.1.03.15.05-.01.01-.01.02-.02.03-.39.4-.78.8-1.17,1.21-.2.21-.23.47-.09.72.17.3.6.38.86.16.17-.15.33-.31.49-.47.5-.48,1-.96,1.47-1.47.08-.09.18-.18.24-.29.1-.17.07-.35-.01-.53-.1-.18-.28-.3-.5-.35Z" style="fill: #fff; stroke-width: 0px;"/>
    <path d="m6.78,9.98c-.17-.14-.31-.3-.39-.5-.01-.03-.02-.06-.04-.1-.07.18-.13.34-.19.51-.07.18-.15.37-.22.55-.11.28-.22.57-.33.85-.02.04-.04.09-.07.11-.28.24-.57.48-.85.71v.01c-.04.03-.08.06-.1.08-.03.03-.06.05-.09.08-.32.26-.63.53-.95.79-.23.19-.3.5-.17.75.15.28.5.41.79.24.14-.08.26-.18.38-.28.42-.33.84-.66,1.26-1,.29-.23.57-.48.85-.72.07-.06.15-.13.19-.22.11-.22.21-.46.31-.69.09-.21.19-.43.28-.64.02-.05.05-.11.07-.16-.07-.03-.14-.05-.21-.08-.18-.06-.36-.16-.52-.29Zm-1.57,1.77l-.01.01h0c0-.01.01-.01.01-.01Z" style="fill: #fff; stroke-width: 0px;"/>
    <path d="m14.15,6.24c-.16-.37-.64-.47-.94-.19-.42.39-.83.77-1.25,1.16-.03.02-.05.03-.08.01-.06-.04-.12-.09-.18-.13s-.12-.08-.18-.13c-.02-.02-.04-.03-.07-.04h0l-.38-.26c-.11-.08-.22-.15-.34-.24.15.55,0,1.01-.36,1.41l.01.01c.33.23.66.47.99.7.2.14.42.16.65.07.06-.02.11-.06.17-.09.05-.03.1-.05.14-.08.12-.1.24-.21.35-.32.44-.4.88-.81,1.31-1.21.21-.18.25-.44.16-.67Z" style="fill: #fff; stroke-width: 0px;"/>
    <path d="m10.84,5.9c.68,0,1.26-.56,1.25-1.25,0-.69-.55-1.25-1.24-1.25-.7,0-1.25.54-1.26,1.25,0,.7.56,1.25,1.25,1.25Z" style="fill: #fff; stroke-width: 0px;"/>
  </g>
</svg>