<?xml version="1.0" encoding="utf-8"?>
<!-- Generator: Adobe Illustrator 27.2.0, SVG Export Plug-In . SVG Version: 6.00 Build 0)  -->
<svg version="1.1" id="_图层_2" xmlns="http://www.w3.org/2000/svg" xmlns:xlink="http://www.w3.org/1999/xlink" x="0px" y="0px"
	 viewBox="0 0 23.1 23.1" style="enable-background:new 0 0 23.1 23.1;" xml:space="preserve">
<style type="text/css">
	.st0{fill:#000;}
	.st1{fill:#fff;}
	.st2{fill:none;stroke:#fff;stroke-width:0.58;stroke-linecap:round;stroke-linejoin:round;}
</style>
<g id="_图层_1-2">
	<g>
		<circle class="st0" cx="11.6" cy="11.6" r="11.6"/>
		<g>
			<path class="st1" d="M16.7,11h1.4c0.3,0,0.6,0.3,0.6,0.6s-0.3,0.6-0.6,0.6h-1.4C16.7,12.2,16.7,11,16.7,11z M16.7,14.6h1.4
				c0.3,0,0.6-0.3,0.6-0.6s-0.3-0.6-0.6-0.6h-1.4C16.7,13.4,16.7,14.6,16.7,14.6z M13.4,16.7v1.4c0,0.3,0.3,0.6,0.6,0.6
				s0.6-0.3,0.6-0.6v-1.4C14.6,16.7,13.4,16.7,13.4,16.7z M11,16.7v1.4c0,0.3,0.3,0.6,0.6,0.6s0.6-0.3,0.6-0.6v-1.4
				C12.2,16.7,11,16.7,11,16.7z M8.6,16.7v1.4c0,0.3,0.3,0.6,0.6,0.6s0.6-0.3,0.6-0.6v-1.4C9.8,16.7,8.6,16.7,8.6,16.7z M6.4,13.4
				H5.1c-0.3,0-0.6,0.3-0.6,0.6s0.3,0.6,0.6,0.6h1.4C6.4,14.6,6.4,13.4,6.4,13.4z M6.4,11H5.1c-0.3,0-0.6,0.3-0.6,0.6
				s0.3,0.6,0.6,0.6h1.4C6.4,12.2,6.4,11,6.4,11z M6.4,8.6H5.1c-0.3,0-0.6,0.3-0.6,0.6s0.3,0.6,0.6,0.6h1.4C6.4,9.8,6.4,8.6,6.4,8.6
				z M9.8,6.4V5.1c0-0.3-0.3-0.6-0.6-0.6S8.5,4.7,8.5,5.1v1.4C8.5,6.4,9.7,6.4,9.8,6.4z M12.2,6.4V5.1c0-0.3-0.3-0.6-0.6-0.6
				S11,4.7,11,5.1v1.4C11,6.4,12.2,6.4,12.2,6.4z M14.6,6.4V5.1c0-0.3-0.3-0.6-0.6-0.6s-0.6,0.3-0.6,0.6v1.4
				C13.4,6.4,14.6,6.4,14.6,6.4z M16.7,9.8h1.4c0.3,0,0.6-0.3,0.6-0.6s-0.3-0.6-0.6-0.6h-1.4C16.7,8.6,16.7,9.8,16.7,9.8z M15.5,8.4
				c0-0.4-0.4-0.8-0.8-0.8H8.4C8,7.6,7.6,8,7.6,8.4v6.3c0,0.4,0.4,0.8,0.8,0.8h6.3c0.4,0,0.8-0.4,0.8-0.8
				C15.5,14.7,15.5,8.4,15.5,8.4z"/>
			<polygon class="st0" points="13.6,10.8 12,10.8 12.3,8 9.5,12.4 11.1,12.4 10.8,15.1 			"/>
			<path class="st2" d="M16.7,7.9l0,7.2c0,0.8-0.6,1.4-1.4,1.4H7.9c-0.8,0-1.4-0.6-1.4-1.4V7.9c0-0.8,0.6-1.4,1.4-1.4h7.4
				C16,6.6,16.7,7.2,16.7,7.9L16.7,7.9z"/>
		</g>
	</g>
</g>
</svg>
