<?xml version="1.0" encoding="UTF-8"?>
<svg id="Working" xmlns="http://www.w3.org/2000/svg" viewBox="0 0 11.34 11.34">
  <g id="icon-1">
    <path d="m3.8,8.5c0,.13-.11.24-.24.24h-.63c-.13,0-.24-.11-.24-.24v-3.48c0-.13.11-.24.24-.24h.63c.13,0,.24.11.24.24v3.48Z" style="fill: #fff; stroke-width: 0px;"/>
    <circle cx="5.67" cy="5.67" r="5.67" style="fill: #000; stroke-width: 0px;"/>
    <path d="m3.8,3.56q0-.01,0,0c-.01.12-.11.22-.24.22h-.63c-.13,0-.23-.1-.23-.23v.01-.02.01c.01-.13.11-.23.23-.23h.63c.13,0,.23.1.24.24v-.02.02Z" style="fill: #fff; stroke-width: 0px;"/>
    <path d="m5.5,8.5c0,.13-.1.24-.24.24h-.63c-.13,0-.24-.11-.24-.24v-4.23c0-.13.11-.24.24-.24h.63c.13,0,.24.11.24.24v4.23Z" style="fill: #fff; stroke-width: 0px;"/>
    <path d="m5.5,2.47q0-.01,0,0c-.01.12-.11.22-.24.22h-.63c-.13,0-.23-.1-.23-.23v.01-.01.01c.01-.13.11-.23.23-.23h.63c.13-.01.23.09.24.23v-.01.01Z" style="fill: #fff; stroke-width: 0px;"/>
    <path d="m7.16,8.5c0,.13-.11.24-.24.24h-.63c-.13,0-.24-.11-.24-.24v-3.92c0-.13.11-.24.24-.24h.63c.13,0,.24.1.24.24v3.92Z" style="fill: #fff; stroke-width: 0px;"/>
    <path d="m7.16,3.5c0-.01-.01-.01,0,0-.01.12-.11.22-.24.22h-.63c-.13,0-.23-.1-.23-.23v.01-.02.01c0-.13.11-.23.23-.23h.63c.13,0,.23.1.24.24v-.02.02Z" style="fill: #fff; stroke-width: 0px;"/>
    <path d="m8.86,8.5c0,.13-.11.24-.24.24h-.63c-.13,0-.24-.11-.24-.24v-2.96c0-.13.11-.24.24-.24h.63c.13,0,.24.11.24.24v2.96Z" style="fill: #fff; stroke-width: 0px;"/>
    <path d="m8.86,3.97s-.01,0,0,0c-.01.12-.11.22-.24.22h-.63c-.13,0-.23-.1-.23-.23v.01-.02.01c.01-.13.11-.23.23-.23h.63c.13,0,.23.11.24.24v-.02.02Z" style="fill: #fff; stroke-width: 0px;"/>
  </g>
</svg>