<?xml version="1.0" encoding="UTF-8"?>
<svg id="_图层_1" data-name="图层 1" xmlns="http://www.w3.org/2000/svg" viewBox="0 0 19.51 19.5">
  <g id="icon-4">
    <path d="m9.76,0C4.36,0,0,4.36,0,9.74s4.37,9.76,9.76,9.76,9.75-4.37,9.75-9.76S15.14,0,9.76,0Z" style="fill: #000; stroke-width: 0px;"/>
    <path d="m6.13,10.96h7.25c.67,0,1.21-.54,1.21-1.21s-.54-1.21-1.21-1.21h-7.25c-.67,0-1.21.54-1.21,1.21s.54,1.21,1.21,1.21Zm1.08-1.56h5.1c.19,0,.35.16.35.35s-.16.35-.35.35h-5.1c-.19,0-.35-.16-.35-.35-.01-.19.15-.35.35-.35Z" style="fill: #fff; stroke-width: 0px;"/>
    <path d="m4.54,5.75l2.97-2.12v1.34h5.89c.36,0,2.16-.02,2.16,4.19,0,0-.31-2.52-2.13-2.52h-5.92v1.17l-2.97-2.06h0Z" style="fill: #fff; stroke-width: 0px;"/>
    <path d="m15.55,13.85l-2.97,2.12v-1.34h-5.89c-.36,0-2.16.02-2.16-4.19,0,0,.31,2.52,2.13,2.52h5.92v-1.17l2.97,2.06h0Z" style="fill: #fff; stroke-width: 0px;"/>
  </g>
</svg>